<svg viewBox="0 0 96 96" xmlns="http://www.w3.org/2000/svg">
  <!-- background rounded square -->
  <rect x="2" y="2" width="92" height="92" rx="24" fill="#fef8ec"/>
  <!-- feet -->
  <ellipse cx="38" cy="84" rx="7" ry="3" fill="#cf6a3a"/>
  <ellipse cx="58" cy="84" rx="7" ry="3" fill="#cf6a3a"/>
  <!-- penguin body -->
  <path d="M24 44 Q24 18 48 18 Q72 18 72 44 L72 70 Q72 82 48 82 Q24 82 24 70 Z" fill="#1c1815"/>
  <!-- belly / clipboard surface -->
  <path d="M34 40 Q34 28 48 28 Q62 28 62 40 L62 70 Q62 76 48 76 Q34 76 34 70 Z" fill="#fef8ec"/>
  <!-- clipboard clip at top -->
  <rect x="42" y="24" width="12" height="6" rx="2" fill="#cf6a3a"/>
  <!-- checklist row 1 (checked) -->
  <rect x="38" y="42" width="5" height="5" rx="1.2" fill="#cf6a3a"/>
  <path d="M39 44.5 L40.2 45.7 L42 43.8" stroke="#fef8ec" stroke-width="1.1" fill="none" stroke-linecap="round" stroke-linejoin="round"/>
  <rect x="46" y="43" width="14" height="3" rx="1.5" fill="#1c1815" opacity="0.7"/>
  <!-- checklist row 2 (checked) -->
  <rect x="38" y="51" width="5" height="5" rx="1.2" fill="#cf6a3a"/>
  <path d="M39 53.5 L40.2 54.7 L42 52.8" stroke="#fef8ec" stroke-width="1.1" fill="none" stroke-linecap="round" stroke-linejoin="round"/>
  <rect x="46" y="52" width="11" height="3" rx="1.5" fill="#1c1815" opacity="0.7"/>
  <!-- checklist row 3 (unchecked) -->
  <rect x="38" y="60" width="5" height="5" rx="1.2" fill="none" stroke="#cf6a3a" stroke-width="1.2"/>
  <rect x="46" y="61" width="16" height="3" rx="1.5" fill="#1c1815" opacity="0.4"/>
  <!-- eyes -->
  <circle cx="42" cy="34" r="2" fill="#fef8ec"/>
  <circle cx="54" cy="34" r="2" fill="#fef8ec"/>
  <circle cx="42" cy="34" r="1" fill="#1c1815"/>
  <circle cx="54" cy="34" r="1" fill="#1c1815"/>
  <!-- beak -->
  <path d="M46 36 L48 39 L50 36 Z" fill="#cf6a3a"/>
</svg>
